<svg height="16" width="16" xmlns="http://www.w3.org/2000/svg" xmlns:xlink="http://www.w3.org/1999/xlink"><linearGradient id="a" gradientUnits="userSpaceOnUse" x1="31.35967902423" x2="12.08896644683" y1="15.64695480476" y2="15.64695480476"><stop offset="0" stop-color="#ffc836"/><stop offset="1" stop-color="#ffe873"/></linearGradient><linearGradient id="b" gradientUnits="userSpaceOnUse" x1="27.94558145147" x2="18.2105566144" y1="11.16909846394" y2="11.09170572641"><stop offset="0" stop-color="#366a96"/><stop offset="1" stop-color="#3679b0"/></linearGradient><g stroke-width=".066554" transform="matrix(1.200851 0 0 1.200851 -21.75445878017 -8.77236744642)"><path d="m21.604835 9.1453265c0-.9066604.243108-1.3999212 1.585482-1.6348074.911357-.1597225 2.079916-.1796878 3.169786 0 .860859.1421061 1.585482.7833451 1.585482 1.6348074v2.9912735c0 .877301-.703483 1.596051-1.585482 1.596051h-3.169786c-1.075779 0-1.982439.917231-1.982439 1.954253v1.435154h-1.089871c-.921928 0-1.458642-.664728-1.684134-1.594878-.304177-1.249592-.291258-1.994181 0-3.190926.252504-1.044069 1.059337-1.594876 1.981265-1.594876h1.189697 3.170962v-.399307h-3.170962z" fill="url(#b)"/><path d="m27.945585 18.718108c0 .906661-.786869 1.365862-1.585482 1.594876-1.201442.345283-2.165648.292434-3.169786 0-.838543-.244281-1.585482-.743413-1.585482-1.594876v-2.991274c0-.860858.717577-1.59605 1.585482-1.59605h3.169786c1.055814 0 1.98244-.912533 1.98244-1.994184v-1.395222h1.188524c.923101 0 1.357641.685866 1.58548 1.594876.317097 1.262512.331189 2.206755 0 3.190926-.32062.955987-.663553 1.594878-1.58548 1.594878h-1.585482-3.169788v.399306h3.169788z" fill="url(#a)"/></g></svg>